<svg width="30" height="30" viewBox="0 0 30 30" fill="none" xmlns="http://www.w3.org/2000/svg">
<path d="M6.11874 8.19216L11.015 13.1012C11.8555 12.2946 12.5842 11.5952 13.1308 11.0696L8.19149 6.11847L7.58722 3.43963L3.17991 0.760836L0.761044 3.18058L3.43989 7.58795L6.11874 8.19216Z" fill="#EBEBEB"/>
<path d="M20.9979 16.1893L28.2379 23.4064C29.5727 24.7404 29.5727 26.9038 28.2379 28.2386C26.9031 29.5726 24.7405 29.5726 23.4057 28.2386L16.1658 21.0215L20.9979 16.1893Z" fill="#EBEBEB"/>
<path d="M26.9506 11.9177C29.4436 9.65548 29.8602 7.08468 29.3026 4.91671C29.2862 4.74456 29.245 4.59995 29.0948 4.49191L28.5931 4.08081C28.5061 3.99931 28.3889 3.95993 28.2717 3.97095C28.1536 3.98284 28.0465 4.04325 27.977 4.13941L25.0912 7.89122C25.0107 8.00202 24.8806 8.06519 24.7442 8.06062L23.6969 8.13755C23.6072 8.1348 23.5201 8.10275 23.4497 8.04597L21.4264 6.33116C21.344 6.26431 21.2899 6.16909 21.2762 6.0638L21.1507 5.11528C21.1361 5.01093 21.1626 4.9047 21.2249 4.81862L23.9266 1.14825C24.0493 0.979796 24.0255 0.746358 23.8735 0.604444L23.218 0.0917485C23.0898 -0.0272554 22.9442 -0.0107905 22.7455 0.027647C20.8797 0.395674 17.6936 2.20294 16.8852 4.7005C16.173 6.8987 16.421 8.44868 16.421 8.44868C16.421 9.68741 16.0136 10.8813 15.5128 11.3821L1.43581 24.8972C1.40833 24.9219 1.38179 24.9475 1.35524 24.9741C0.192508 26.1368 0.194325 28.0237 1.31768 29.1471C2.44104 30.2705 4.3563 30.2998 5.51903 29.137C5.57306 29.083 5.62526 29.0272 5.67378 28.9695L19.2483 14.2954C20.9182 12.8085 24.2242 14.3924 26.9506 11.9177Z" fill="#EBEBEB"/>
</svg>
